<?xml version="1.0" encoding="utf-8"?>
<!-- Generator: Adobe Illustrator 16.0.0, SVG Export Plug-In . SVG Version: 6.00 Build 0)  -->
<!DOCTYPE svg PUBLIC "-//W3C//DTD SVG 1.1//EN" "http://www.w3.org/Graphics/SVG/1.1/DTD/svg11.dtd">
<svg version="1.1" id="Layer_1" xmlns="http://www.w3.org/2000/svg" xmlns:xlink="http://www.w3.org/1999/xlink" x="0px" y="0px"
	 width="24px" height="24px" viewBox="0 0 24 24" enable-background="new 0 0 24 24" xml:space="preserve">
<path fill="#000000" d="M6.577,21.156c5.313,0.725,10.533,1.438,15.854,2.165c-1.813-3.019-3.58-5.96-5.36-8.927
	C13.582,16.642,10.125,18.87,6.577,21.156L6.577,21.156z M23.932,4.446c-0.468,0.703-0.938,1.406-1.405,2.11
	c-1.606,2.417-3.213,4.834-4.818,7.251c-0.09,0.135-0.205,0.242-0.08,0.449c1.551,2.561,3.089,5.13,4.631,7.695
	c0.244,0.406,0.489,0.809,0.805,1.198C23.376,16.921,23.689,10.694,24,4.466C23.978,4.459,23.954,4.452,23.932,4.446L23.932,4.446z
	 M2.763,12.429c0.073,0.069,0.253,0.108,0.338,0.067c1.487-0.731,2.984-1.445,4.439-2.237c0.475-0.258,0.839-0.72,1.248-1.095
	c1.354-1.241,2.705-2.485,4.056-3.729c0.083-0.076,0.18-0.15,0.229-0.246c0.486-0.949,0.962-1.902,1.456-2.882
	c-0.589-0.222-1.146-0.438-1.711-0.634c-0.076-0.026-0.197,0.026-0.28,0.072c-1.308,0.73-2.64,1.422-3.907,2.219
	C7.999,4.362,7.482,4.95,6.921,5.461C6.016,6.286,5.114,7.114,4.223,7.954C3.986,8.177,3.771,8.431,3.586,8.699
	c-0.609,0.887-1.2,1.788-1.818,2.712C2.113,11.77,2.428,12.112,2.763,12.429L2.763,12.429z M8.199,11.217
	c-0.74,3.126-1.476,6.234-2.236,9.445c3.563-2.296,7.045-4.541,10.503-6.768C13.715,13.003,10.972,12.114,8.199,11.217L8.199,11.217
	z M23.022,4.476c-3.011,0.503-5.95,0.994-8.927,1.491c1.014,2.467,2.007,4.884,3.03,7.37c1.978-2.971,3.916-5.882,5.899-8.86H23.022
	z M8.323,10.577c2.711,0.881,5.368,1.744,8.104,2.631c-1.015-2.474-1.996-4.862-2.998-7.299C11.724,7.468,10.045,9.003,8.323,10.577
	z M2.875,14.252c-0.962,2.299-1.891,4.519-2.836,6.78c1.817-0.054,3.58-0.107,5.401-0.161C4.585,18.664,3.747,16.5,2.875,14.252
	L2.875,14.252z M5.504,19.3c0.022-0.004,0.044-0.01,0.067-0.015c0.648-2.696,1.307-5.375,1.969-8.177
	c-1.477,0.768-2.886,1.5-4.333,2.252C3.946,15.281,4.733,17.307,5.504,19.3L5.504,19.3z M21.933,4.039
	c-0.863-0.228-1.726-0.458-2.587-0.685c-1.241-0.326-2.483-0.648-3.722-0.977c-0.155-0.042-0.267-0.069-0.358,0.118
	c-0.438,0.898-0.89,1.789-1.335,2.683c-0.013,0.027-0.011,0.063-0.021,0.132c2.686-0.406,5.354-0.811,8.021-1.215
	C21.932,4.076,21.932,4.058,21.933,4.039z M16.929,1.997c2.316,0.641,4.632,1.281,7.03,1.945c-0.404-1.149-0.777-2.215-1.162-3.311
	c-1.969,0.437-3.913,0.868-5.858,1.299C16.936,1.953,16.933,1.974,16.929,1.997L16.929,1.997z M6.101,21.673
	c-0.872-0.1-1.765-0.007-2.648,0.007c-0.726,0.013-1.451,0.04-2.176,0.063c-0.075,0.001-0.149,0.017-0.224,0.097
	c5.997,0.555,11.995,1.109,17.991,1.664c0.004-0.027,0.008-0.054,0.012-0.081c-1.922-0.262-3.844-0.524-5.768-0.787
	C10.894,22.31,8.502,21.951,6.101,21.673L6.101,21.673z M0.157,18.963c0.773-1.793,1.542-3.589,2.319-5.38
	c0.078-0.179,0.072-0.301-0.081-0.446c-0.325-0.309-0.625-0.642-0.98-1.01C0.936,14.495,0.468,16.803,0,19.112
	c0.018,0.008,0.035,0.017,0.052,0.025c0.036-0.057,0.08-0.112,0.106-0.173H0.157z M15.39,1.523c1.303-0.336,2.625-0.6,3.939-0.893
	c0.085-0.019,0.168-0.047,0.252-0.071c-0.004-0.022-0.008-0.043-0.013-0.064c-1.851,0.249-3.702,0.499-5.647,0.76
	C14.451,1.488,14.859,1.66,15.39,1.523L15.39,1.523z"/>
</svg>
