<?xml version="1.0" encoding="utf-8"?>
<!-- Generator: Adobe Illustrator 16.0.0, SVG Export Plug-In . SVG Version: 6.00 Build 0)  -->
<!DOCTYPE svg PUBLIC "-//W3C//DTD SVG 1.1//EN" "http://www.w3.org/Graphics/SVG/1.1/DTD/svg11.dtd">
<svg version="1.1" id="Layer_1" xmlns="http://www.w3.org/2000/svg" xmlns:xlink="http://www.w3.org/1999/xlink" x="0px" y="0px"
	 width="292px" height="33.492px" viewBox="0 0 292 33.492" enable-background="new 0 0 292 33.492" xml:space="preserve">
<rect fill="none" width="80.064" height="17.984"/>
<g enable-background="new    ">
	<path d="M26.624,11.12l-0.146,1.2h-7.907v-1.2c0.064-0.672-0.188-1.24-0.759-1.704c-0.571-0.463-1.283-0.696-2.138-0.696
		c-0.824,0-1.561,0.233-2.209,0.696c-0.65,0.464-1.006,1.032-1.069,1.704l-0.712,8.399c-0.065,0.672,0.192,1.24,0.77,1.705
		c0.577,0.463,1.284,0.695,2.118,0.695c0.866,0,1.629-0.232,2.287-0.695c0.658-0.465,1.019-1.033,1.083-1.705l0.098-1.199h7.906
		l-0.097,1.199c-0.194,2.305-1.439,4.281-3.735,5.928c-2.296,1.648-4.98,2.473-8.052,2.473c-3.04,0-5.562-0.824-7.567-2.473
		c-2.005-1.646-2.911-3.623-2.716-5.928l0.776-8.399c0.194-2.304,1.438-4.28,3.735-5.928c2.296-1.648,4.964-2.472,8.004-2.472
		c3.072,0,5.61,0.824,7.616,2.472C25.912,6.84,26.818,8.816,26.624,11.12z"/>
	<path d="M51.848,11.12l-0.776,8.399c-0.194,2.305-1.439,4.281-3.735,5.928c-2.296,1.648-4.98,2.473-8.052,2.473
		c-3.04,0-5.562-0.824-7.567-2.473c-2.005-1.646-2.911-3.623-2.716-5.928l0.776-8.399c0.194-2.304,1.438-4.28,3.735-5.928
		c2.296-1.648,4.964-2.472,8.004-2.472c3.072,0,5.61,0.824,7.616,2.472C51.136,6.84,52.042,8.816,51.848,11.12z M43.941,11.12
		c0.064-0.672-0.194-1.24-0.776-1.704c-0.583-0.463-1.31-0.696-2.183-0.696c-0.841,0-1.593,0.233-2.256,0.696
		c-0.663,0.464-1.027,1.032-1.091,1.704l-0.728,8.399c-0.065,0.672,0.192,1.24,0.77,1.705c0.577,0.463,1.284,0.695,2.118,0.695
		c0.866,0,1.629-0.232,2.287-0.695c0.658-0.465,1.019-1.033,1.083-1.705L43.941,11.12z"/>
	<path d="M77.266,8.72l-1.698,19.2h-7.907l1.504-16.8c0.064-0.672-0.192-1.24-0.771-1.704c-0.579-0.463-1.302-0.696-2.17-0.696
		c-0.835,0-1.583,0.233-2.241,0.696c-0.659,0.464-1.021,1.032-1.084,1.704l-1.495,16.8h-7.907l2.231-25.2h7.858l-0.194,2.4
		c1.714-1.6,3.881-2.4,6.5-2.4c2.199,0,4.018,0.584,5.458,1.752C76.789,5.641,77.428,7.057,77.266,8.72z"/>
	<path d="M102.49,8.72l-1.698,19.2h-7.907l1.504-16.8c0.064-0.672-0.192-1.24-0.771-1.704c-0.579-0.463-1.302-0.696-2.17-0.696
		c-0.835,0-1.583,0.233-2.241,0.696c-0.659,0.464-1.021,1.032-1.084,1.704l-1.495,16.8h-7.907l2.231-25.2h7.858l-0.194,2.4
		c1.714-1.6,3.881-2.4,6.5-2.4c2.199,0,4.018,0.584,5.458,1.752C102.013,5.641,102.652,7.057,102.49,8.72z"/>
	<path d="M127.52,11.12l-0.679,7.2h-14.165l-0.097,1.199c-0.065,0.672,0.195,1.24,0.781,1.705c0.586,0.463,1.302,0.695,2.149,0.695
		c0.879,0,1.652-0.232,2.32-0.695c0.667-0.465,1.034-1.033,1.099-1.705h7.913c-0.196,2.305-1.446,4.281-3.752,5.928
		c-2.307,1.648-5.002,2.473-8.087,2.473c-3.054,0-5.587-0.824-7.601-2.473c-2.013-1.646-2.923-3.623-2.729-5.928l0.776-8.399
		c0.194-2.304,1.438-4.28,3.735-5.928c2.296-1.648,4.964-2.472,8.004-2.472c3.072,0,5.61,0.824,7.616,2.472
		C126.808,6.84,127.714,8.816,127.52,11.12z M119.613,11.12c0.064-0.672-0.194-1.24-0.776-1.704
		c-0.583-0.463-1.31-0.696-2.183-0.696c-0.841,0-1.593,0.233-2.256,0.696c-0.663,0.464-1.027,1.032-1.091,1.704l-0.097,1.2h6.306
		L119.613,11.12z"/>
	<path d="M152.744,11.12l-0.146,1.2h-7.906v-1.2c0.064-0.672-0.188-1.24-0.759-1.704c-0.571-0.463-1.283-0.696-2.138-0.696
		c-0.824,0-1.561,0.233-2.209,0.696c-0.65,0.464-1.006,1.032-1.069,1.704l-0.712,8.399c-0.065,0.672,0.192,1.24,0.77,1.705
		c0.577,0.463,1.284,0.695,2.118,0.695c0.866,0,1.629-0.232,2.287-0.695c0.658-0.465,1.019-1.033,1.083-1.705l0.098-1.199h7.906
		l-0.097,1.199c-0.194,2.305-1.439,4.281-3.735,5.928c-2.296,1.648-4.98,2.473-8.052,2.473c-3.04,0-5.562-0.824-7.567-2.473
		c-2.005-1.646-2.911-3.623-2.716-5.928l0.776-8.399c0.194-2.304,1.438-4.28,3.735-5.928c2.296-1.648,4.964-2.472,8.004-2.472
		c3.072,0,5.61,0.824,7.616,2.472C152.032,6.84,152.938,8.816,152.744,11.12z"/>
	<path d="M177.047,2.72l-0.531,6h-6.271l-1.688,19.2h-7.906l1.697-19.2h-6.306l0.534-6H177.047z"/>
	<path d="M212.846,2.72l-0.533,6H199.7l-0.292,3.6h12.613l-0.532,6h-12.568l-0.87,9.6h-7.907l2.231-25.2H212.846z"/>
	<path d="M237.344,11.12l-0.777,8.399c-0.193,2.305-1.439,4.281-3.734,5.928c-2.297,1.648-4.98,2.473-8.053,2.473
		c-3.04,0-5.562-0.824-7.567-2.473c-2.005-1.646-2.911-3.623-2.716-5.928l0.775-8.399c0.193-2.304,1.438-4.28,3.735-5.928
		c2.296-1.648,4.964-2.472,8.004-2.472c3.071,0,5.61,0.824,7.616,2.472C236.631,6.84,237.537,8.816,237.344,11.12z M229.436,11.12
		c0.064-0.672-0.193-1.24-0.775-1.704c-0.582-0.463-1.311-0.696-2.184-0.696c-0.841,0-1.593,0.233-2.256,0.696
		c-0.662,0.464-1.026,1.032-1.091,1.704l-0.728,8.399c-0.065,0.672,0.191,1.24,0.77,1.705c0.577,0.463,1.283,0.695,2.118,0.695
		c0.866,0,1.629-0.232,2.286-0.695c0.658-0.465,1.02-1.033,1.084-1.705L229.436,11.12z"/>
	<path d="M263.295,2.72l-2.232,25.2h-7.906l0.242-2.4c-1.715,1.602-3.897,2.4-6.549,2.4c-2.167,0-3.97-0.584-5.408-1.752
		c-1.439-1.168-2.078-2.584-1.916-4.248l1.697-19.2h7.858l-1.455,16.8c-0.065,0.672,0.194,1.24,0.776,1.705
		c0.582,0.463,1.293,0.695,2.135,0.695c0.873,0,1.641-0.232,2.304-0.695c0.662-0.465,1.026-1.033,1.091-1.705l1.455-16.8H263.295z"
		/>
	<path d="M287.984,8.719l-0.727,8.4c-0.227,2.527-1.893,4.336-4.996,5.424l5.598,5.377h-9.479l-5.772-5.617l-0.484,5.617h-7.908
		l2.232-25.2h7.857l-0.193,2.4c1.714-1.6,3.881-2.4,6.5-2.4c2.199,0,4.018,0.584,5.457,1.752
		C287.508,5.641,288.146,7.056,287.984,8.719z M279.884,11.12c0.064-0.672-0.194-1.24-0.776-1.704
		c-0.582-0.463-1.31-0.696-2.183-0.696c-0.841,0-1.593,0.233-2.256,0.696c-0.663,0.464-1.026,1.032-1.091,1.704l-0.291,3.6
		c-0.065,0.672,0.186,1.241,0.752,1.704c0.564,0.464,1.285,0.696,2.158,0.696s1.641-0.232,2.305-0.696
		c0.662-0.463,1.025-1.032,1.091-1.704L279.884,11.12z"/>
</g>
</svg>
