<?xml version="1.0" encoding="utf-8"?>
<!-- Generator: Adobe Illustrator 16.0.0, SVG Export Plug-In . SVG Version: 6.00 Build 0)  -->
<!DOCTYPE svg PUBLIC "-//W3C//DTD SVG 1.1//EN" "http://www.w3.org/Graphics/SVG/1.1/DTD/svg11.dtd">
<svg version="1.1" id="Layer_1" xmlns="http://www.w3.org/2000/svg" xmlns:xlink="http://www.w3.org/1999/xlink" x="0px" y="0px"
	 width="258.667px" height="44.667px" viewBox="0 0 258.667 44.667" enable-background="new 0 0 258.667 44.667"
	 xml:space="preserve">
<rect x="-5" fill="none" width="149.611" height="23.255"/>
<g enable-background="new    ">
	<path fill="#333333" d="M5.688,21.121c0,0.625,0.007,1.422,0.023,2.39c0.016,0.969,0.031,1.977,0.047,3.023
		c0.016,1.047,0.031,2.055,0.047,3.023c0.016,0.969,0.023,1.781,0.023,2.438c0.125,0.406-0.008,0.703-0.398,0.891
		c-0.391,0.188-0.836,0.273-1.336,0.258c-0.5-0.016-0.961-0.117-1.383-0.305s-0.602-0.453-0.539-0.797
		c-0.063-0.719-0.094-1.523-0.094-2.414s0.007-1.805,0.023-2.742c0.016-0.938,0.023-1.852,0.023-2.742s-0.031-1.71-0.094-2.46
		c-0.344-0.438-0.57-0.977-0.68-1.617c-0.11-0.641,0.133-1.367,0.727-2.18c0-1.219-0.016-2.344-0.047-3.375
		C2,13.48,1.977,12.449,1.961,11.418c-0.016-1.031-0.04-2.109-0.07-3.234C1.859,7.059,1.844,5.793,1.844,4.387
		C1.906,4.012,2.109,3.73,2.453,3.543c0.344-0.188,0.71-0.281,1.102-0.281c0.391,0,0.75,0.094,1.078,0.281s0.508,0.469,0.539,0.844
		l0.281,13.312c0.875,0.062,1.828,0.055,2.859-0.023s2-0.164,2.906-0.258c0.906-0.094,1.664-0.188,2.273-0.281
		s0.93-0.141,0.961-0.141c0.062-0.719,0.086-1.562,0.07-2.531c-0.016-0.969-0.055-2.016-0.117-3.141
		c-0.063-1.125-0.157-2.305-0.281-3.539C14,6.551,13.875,5.293,13.75,4.012c0.125-0.438,0.382-0.734,0.773-0.891
		c0.391-0.156,0.797-0.211,1.219-0.164s0.804,0.18,1.148,0.398c0.344,0.219,0.531,0.484,0.562,0.797
		c0.031,0.438,0.078,1.141,0.141,2.109c0.062,0.969,0.125,2.469,0.188,4.5c0.062,2.031,0.125,4.742,0.188,8.133
		c0.062,3.391,0.109,7.726,0.141,13.007c0.156,0.406,0.062,0.727-0.281,0.961c-0.344,0.234-0.758,0.367-1.242,0.398
		c-0.485,0.031-0.938-0.055-1.359-0.258s-0.617-0.555-0.586-1.055L14.453,20.23L5.688,21.121z"/>
	<path fill="#333333" d="M28.188,32.792c-1.375,0.031-2.571-0.391-3.586-1.266c-1.016-0.875-1.852-2.016-2.508-3.422
		s-1.141-3.016-1.453-4.828c-0.312-1.812-0.438-3.64-0.375-5.484c0.031-1.875,0.265-3.711,0.703-5.508
		C21.406,10.488,22,8.887,22.75,7.48s1.633-2.531,2.648-3.375c1.015-0.844,2.148-1.266,3.398-1.266c1.781,0,3.164,0.461,4.148,1.383
		s1.703,2.086,2.156,3.492c0.453,1.406,0.719,2.922,0.797,4.547c0.078,1.625,0.117,3.141,0.117,4.547
		c0,0.938-0.04,1.984-0.117,3.141c-0.078,1.156-0.227,2.32-0.445,3.492c-0.219,1.172-0.516,2.312-0.891,3.422
		s-0.852,2.102-1.43,2.977c-0.579,0.875-1.273,1.578-2.086,2.109C30.234,32.48,29.281,32.761,28.188,32.792z M28.984,6.262
		c-0.75-0.031-1.461,0.344-2.133,1.125c-0.672,0.781-1.273,1.812-1.805,3.094c-0.438,1.094-0.79,2.312-1.055,3.656
		c-0.266,1.344-0.415,2.734-0.445,4.172c-0.031,1.438,0.062,2.836,0.281,4.195c0.218,1.359,0.531,2.554,0.938,3.585
		c0.406,1.031,0.906,1.844,1.5,2.438c0.593,0.594,1.25,0.859,1.969,0.797c1-0.094,1.797-0.617,2.391-1.57
		c0.593-0.953,1.055-2.078,1.383-3.375s0.546-2.617,0.656-3.96c0.109-1.344,0.164-2.469,0.164-3.375c0-0.438,0-1,0-1.688
		s-0.023-1.422-0.07-2.203s-0.133-1.578-0.258-2.391c-0.125-0.812-0.328-1.547-0.609-2.203s-0.656-1.195-1.125-1.617
		S29.703,6.293,28.984,6.262z"/>
	<path fill="#333333" d="M38.828,32.464c-0.063-4.625-0.18-9.219-0.352-13.781c-0.172-4.562-0.18-9.156-0.023-13.781
		c0.156-0.562,0.414-0.977,0.773-1.242c0.359-0.266,0.766-0.398,1.219-0.398c0.453,0,0.898,0.141,1.336,0.422
		c0.438,0.281,0.797,0.672,1.078,1.172c1.094,2.188,2.023,4.055,2.789,5.602c0.766,1.547,1.398,2.844,1.898,3.891
		c0.5,1.047,0.914,1.906,1.242,2.578s0.586,1.227,0.773,1.664s0.352,0.812,0.492,1.125s0.289,0.625,0.445,0.938l5.812-17.016
		c0.188-0.5,0.523-0.82,1.008-0.961c0.484-0.141,0.977-0.148,1.477-0.023c0.5,0.125,0.945,0.336,1.336,0.633
		c0.391,0.297,0.57,0.648,0.539,1.055c0.406,2.25,0.719,4.531,0.938,6.844c0.218,2.312,0.414,4.625,0.586,6.938
		c0.171,2.312,0.359,4.609,0.562,6.89c0.203,2.281,0.492,4.531,0.867,6.75c0,0.312-0.164,0.578-0.492,0.797
		s-0.711,0.367-1.148,0.445c-0.438,0.078-0.867,0.086-1.289,0.023s-0.711-0.219-0.867-0.469L57.906,9.262l-4.875,15.14
		c-0.125,0.375-0.398,0.664-0.82,0.867s-0.891,0.312-1.406,0.328s-1.016-0.086-1.5-0.305c-0.485-0.219-0.82-0.562-1.008-1.031
		l-6.75-14.015c-0.031,1-0.031,2.156,0,3.469c0.031,1.312,0.078,2.703,0.141,4.172c0.062,1.469,0.141,2.953,0.234,4.453
		c0.094,1.5,0.18,2.921,0.258,4.265c0.078,1.344,0.156,2.562,0.234,3.656c0.078,1.094,0.133,1.969,0.164,2.625
		c-0.219,0.219-0.539,0.383-0.961,0.492s-0.836,0.148-1.242,0.117c-0.406-0.031-0.766-0.125-1.078-0.281
		C38.984,33.058,38.828,32.808,38.828,32.464z"/>
	<path fill="#333333" d="M68.781,33.824c-0.875-0.25-1.446-0.711-1.711-1.383c-0.266-0.672-0.415-1.531-0.445-2.578
		c-0.031-1.047-0.04-2.266-0.023-3.656c0.016-1.391-0.148-2.93-0.492-4.617c-0.406-0.25-0.656-0.547-0.75-0.891
		s-0.11-0.703-0.047-1.078c0.062-0.375,0.18-0.742,0.352-1.102c0.171-0.359,0.335-0.68,0.492-0.961c0-0.781-0.023-1.68-0.07-2.695
		s-0.133-2.047-0.258-3.094c-0.125-1.047-0.297-2.078-0.516-3.094c-0.219-1.016-0.485-1.945-0.797-2.789
		c-0.094-0.625-0.031-1.125,0.188-1.5s0.523-0.625,0.914-0.75c0.391-0.125,0.828-0.125,1.312,0c0.484,0.125,0.961,0.375,1.43,0.75
		l13.172-1.875c0.344-0.062,0.64,0.023,0.891,0.258c0.25,0.234,0.422,0.523,0.516,0.867s0.094,0.711,0,1.102
		s-0.281,0.695-0.562,0.914c-1.469,0.344-2.844,0.625-4.125,0.844c-1.282,0.219-2.469,0.406-3.562,0.562
		c-1.094,0.156-2.109,0.32-3.047,0.492s-1.797,0.367-2.578,0.586c0,0.156,0.016,0.461,0.047,0.914
		c0.031,0.453,0.07,0.961,0.117,1.523s0.094,1.164,0.141,1.805s0.101,1.211,0.164,1.711c0.062,0.5,0.125,0.914,0.188,1.242
		c0.062,0.328,0.125,0.477,0.188,0.445c0.188-0.062,0.523-0.18,1.008-0.352c0.484-0.172,1.031-0.359,1.641-0.562
		s1.25-0.422,1.922-0.656c0.672-0.234,1.289-0.445,1.852-0.633s1.047-0.352,1.453-0.492c0.406-0.141,0.64-0.242,0.703-0.305
		c0.406,0.062,0.719,0.25,0.938,0.562c0.218,0.312,0.352,0.656,0.398,1.031s0.007,0.75-0.117,1.125
		c-0.125,0.375-0.312,0.656-0.562,0.844l-9.234,3.656c-0.031,1.406-0.023,2.984,0.023,4.734s0.133,3.375,0.258,4.875
		c0.281-0.031,0.766-0.195,1.453-0.492c0.687-0.297,1.523-0.734,2.508-1.312s2.078-1.32,3.281-2.227
		c1.203-0.906,2.445-1.984,3.727-3.234c0.188-0.156,0.438-0.203,0.75-0.141c0.312,0.062,0.593,0.18,0.844,0.352
		c0.25,0.172,0.445,0.39,0.586,0.656s0.148,0.539,0.023,0.82c-0.75,1-1.633,1.969-2.648,2.906c-1.016,0.938-2.086,1.82-3.211,2.648
		s-2.266,1.578-3.422,2.25c-1.156,0.672-2.234,1.211-3.234,1.617c-0.406,0.156-0.743,0.273-1.008,0.352
		C69.57,33.878,69.219,33.886,68.781,33.824z"/>
</g>
<g enable-background="new    ">
	<path fill="#333333" d="M91.207,33.792l-8.401-22.18h8.99l4.075,13.821h0.294l4.075-13.821h8.233l-8.485,22.18H91.207z"/>
	<path fill="#333333" d="M133.882,22.702v1.428h-16.635c0,3.066,1.26,4.83,4.453,4.83c2.982,0,4.075-1.428,4.075-3.234h8.107
		c0,5.293-4.032,8.57-12.014,8.57s-12.98-3.613-12.98-11.594c0-7.771,4.915-11.594,12.476-11.594
		C129.346,11.108,133.882,14.721,133.882,22.702z M117.29,20.182h8.149c0-2.311-1.386-3.738-3.738-3.738
		C118.886,16.443,117.584,17.871,117.29,20.182z"/>
	<path fill="#333333" d="M160.93,19.426v14.367h-8.359V20.434c0-1.849-0.966-3.15-2.814-3.15c-2.101,0-3.487,1.596-3.487,3.486
		v13.023h-8.359v-22.18h6.848l0.546,3.36c1.723-2.353,4.747-3.864,7.897-3.864C158.452,11.108,160.93,14.175,160.93,19.426z"/>
	<path fill="#333333" d="M180.71,11.612v5.671h-4.705v8.443c0,1.891,0.463,2.898,2.353,2.898h2.353v4.916
		c-1.387,0.461-3.906,0.756-5.377,0.756c-4.537,0-7.688-1.387-7.688-5.924V17.283h-3.108v-5.671h3.444l1.807-6.722h6.217v6.722
		H180.71z"/>
	<path fill="#333333" d="M208.558,22.702c0,7.772-4.957,11.594-12.52,11.594c-7.561,0-12.476-3.822-12.476-11.594
		c0-7.771,4.915-11.594,12.476-11.594C203.601,11.108,208.558,14.931,208.558,22.702z M191.922,21.525v2.394
		c0,2.941,1.177,4.705,4.116,4.705c2.941,0,4.16-1.764,4.16-4.705v-2.394c0-2.94-1.219-4.746-4.16-4.746
		C193.099,16.779,191.922,18.585,191.922,21.525z"/>
	<path fill="#333333" d="M228.548,11.57v7.015h-2.689c-3.612,0-4.914,1.975-4.914,5.334v9.873h-8.359v-22.18h6.847l0.546,3.36
		c1.051-2.646,3.445-3.906,6.092-3.906C227.624,11.066,228.548,11.57,228.548,11.57z"/>
	<path fill="#333333" d="M237.701,42.613c-2.017,0-3.781-0.377-4.831-0.756v-4.998h3.36c2.941,0,3.529-1.975,3.739-3.066
		l-8.821-22.18h8.989l4.243,14.745h0.293l3.907-14.745h8.233l-7.897,21.508C246.9,38.623,244.169,42.613,237.701,42.613z"/>
</g>
</svg>
