<?xml version="1.0" encoding="utf-8"?>
<!-- Generator: Adobe Illustrator 16.0.0, SVG Export Plug-In . SVG Version: 6.00 Build 0)  -->
<!DOCTYPE svg PUBLIC "-//W3C//DTD SVG 1.1//EN" "http://www.w3.org/Graphics/SVG/1.1/DTD/svg11.dtd">
<svg version="1.1" id="Layer_1" xmlns="http://www.w3.org/2000/svg" xmlns:xlink="http://www.w3.org/1999/xlink" x="0px" y="0px"
	 width="257px" height="54.246px" viewBox="14.5 0 257 54.246" enable-background="new 14.5 0 257 54.246" xml:space="preserve">
<rect fill="none" width="80.064" height="17.984"/>
<g>
	<path d="M44.58,6.427c-0.288,1.632-0.528,3.216-0.72,4.752s-0.368,3.072-0.528,4.608c-0.032,0.096-0.192,0.184-0.48,0.264
		s-0.512,0.12-0.672,0.12c-0.225,0-0.448-0.032-0.672-0.096s-0.336-0.16-0.336-0.288c0.064-2.368-0.464-4.408-1.584-6.12
		c-1.12-1.712-2.4-2.568-3.84-2.568c-1.216,0-2.232,0.392-3.048,1.176c-0.816,0.784-1.224,1.928-1.224,3.432
		c0,1.472,0.616,2.808,1.848,4.008c1.231,1.2,2.424,2.328,3.576,3.384c1.344,1.216,2.584,2.632,3.72,4.248
		c1.136,1.616,1.704,3.624,1.704,6.024c0,2.688-1.192,5.08-3.576,7.176c-2.384,2.096-5.752,3.144-10.104,3.144
		c-2.208,0-4.064-0.353-5.568-1.056c-1.504-0.704-3.2-1.232-5.088-1.584c0.256-1.473,0.552-3.152,0.888-5.04s0.584-3.567,0.744-5.04
		c0-0.096,0.16-0.184,0.48-0.264c0.32-0.08,0.56-0.121,0.72-0.121c0.224,0,0.432,0.033,0.624,0.097
		c0.192,0.063,0.288,0.16,0.288,0.288c0.128,3.2,0.88,5.736,2.256,7.607c1.376,1.873,2.992,2.809,4.848,2.809
		c1.6,0,2.84-0.432,3.72-1.296c0.879-0.864,1.32-2.144,1.32-3.841c0-1.439-0.592-2.783-1.776-4.031
		c-1.185-1.248-2.432-2.496-3.744-3.744c-1.408-1.344-2.688-2.784-3.84-4.32c-1.152-1.535-1.728-3.36-1.728-5.472
		c0-2.432,0.992-4.688,2.976-6.768c1.983-2.08,5.088-3.12,9.312-3.12c1.824,0,3.543,0.24,5.16,0.72S43.3,6.299,44.58,6.427z"/>
	<path d="M65.221,19.002c0,0.32-0.119,0.689-0.358,1.104c-0.238,0.417-0.453,0.624-0.643,0.624l-4.767-0.145l-3.896,11.568
		c-0.128,0.385-0.24,0.776-0.336,1.176c-0.096,0.4-0.144,0.729-0.144,0.984s0.032,0.448,0.096,0.576
		c0.064,0.129,0.208,0.191,0.432,0.191c0.796,0,1.719-0.52,2.77-1.56c1.05-1.04,1.687-1.56,1.91-1.56
		c0.254,0,0.564,0.176,0.931,0.527c0.366,0.353,0.549,0.592,0.549,0.721c0,0.191-0.36,0.656-1.08,1.392
		c-0.72,0.736-1.56,1.44-2.52,2.112c-1.184,0.863-2.296,1.576-3.336,2.136s-2.152,0.84-3.336,0.84c-1.376,0-2.472-0.36-3.288-1.079
		c-0.816-0.721-1.224-1.736-1.224-3.049c0-0.48,0.04-0.879,0.12-1.199s0.2-0.752,0.36-1.297l4.216-12.432l-3.642,0.096
		c-0.192,0-0.328-0.145-0.407-0.432c-0.08-0.288-0.12-0.528-0.12-0.721c0-0.352,0.12-0.728,0.36-1.127
		c0.24-0.4,0.44-0.601,0.601-0.601h4.182l1.769-5.184c0.064-0.256,0.698-0.456,1.903-0.6c1.205-0.144,1.951-0.216,2.24-0.216
		c0.45,0,1.18,0.08,2.192,0.24s1.47,0.352,1.374,0.576l-1.768,5.184h4.335c0.191,0,0.326,0.144,0.405,0.433
		C65.181,18.57,65.221,18.811,65.221,19.002z"/>
	<path d="M91.812,17.898L86.916,32.49c-0.16,0.449-0.304,0.912-0.432,1.393s-0.192,0.816-0.192,1.008s0.048,0.336,0.144,0.432
		s0.208,0.145,0.336,0.145c0.416,0,1.032-0.439,1.848-1.32c0.816-0.879,1.32-1.32,1.512-1.32c0.256,0,0.52,0.168,0.792,0.504
		s0.408,0.568,0.408,0.697c0,0.543-0.921,1.623-2.763,3.239s-3.644,2.424-5.405,2.424c-1.313,0-2.378-0.36-3.195-1.079
		c-0.817-0.721-1.225-1.705-1.225-2.953c0-0.319,0.024-0.623,0.072-0.912c0.048-0.287,0.152-0.672,0.312-1.151l0.856-2.399
		c-1.47,2.463-3.124,4.496-4.961,6.096s-3.699,2.399-5.584,2.399c-1.054,0-2.037-0.353-2.948-1.056
		c-0.911-0.704-1.366-1.648-1.366-2.832c0-0.672,0.088-1.368,0.264-2.088c0.176-0.721,0.408-1.448,0.696-2.184l2.976-7.345
		c0.192-0.479,0.376-0.937,0.552-1.368c0.176-0.432,0.264-0.76,0.264-0.984c0-0.223-0.04-0.375-0.12-0.455s-0.168-0.12-0.264-0.12
		c-0.64,0-1.353,0.399-2.136,1.2c-0.784,0.8-1.256,1.199-1.416,1.199c-0.256,0-0.512-0.176-0.768-0.527s-0.384-0.576-0.384-0.672
		c0-0.544,1.088-1.633,3.265-3.264c2.177-1.633,4.242-2.449,6.195-2.449c1.312,0,2.289,0.232,2.929,0.696s0.96,1.161,0.96,2.089
		c0,0.416-0.064,0.943-0.192,1.584c-0.128,0.64-0.336,1.279-0.624,1.92l-3.326,7.823c-0.192,0.417-0.352,0.88-0.48,1.392
		c-0.128,0.513-0.192,0.929-0.192,1.248c0,0.449,0.056,0.785,0.168,1.009s0.392,0.336,0.84,0.336c0.864,0,2.176-1.399,3.937-4.2
		c1.761-2.8,3.185-5.56,4.273-8.279l1.523-4.465c0.064-0.256,0.593-0.456,1.587-0.6c0.995-0.144,1.716-0.216,2.166-0.216
		c0.481,0,1.291,0.072,2.43,0.216C91.386,17.442,91.908,17.643,91.812,17.898z"/>
	<path d="M124.884,4.386c0,0.16-0.024,0.352-0.072,0.576c-0.048,0.224-0.12,0.448-0.216,0.671l-9.12,25.516
		c-0.16,0.415-0.352,0.951-0.576,1.606c-0.224,0.656-0.336,1.111-0.336,1.367c0,0.225,0.032,0.408,0.096,0.552
		c0.063,0.144,0.208,0.216,0.432,0.216c0.576,0,1.176-0.48,1.8-1.439c0.624-0.961,1.032-1.44,1.224-1.44
		c0.224,0,0.464,0.168,0.72,0.504s0.384,0.567,0.384,0.696c0,0.576-0.808,1.8-2.424,3.672c-1.616,1.871-3.32,2.808-5.112,2.808
		c-1.184,0-2.072-0.288-2.664-0.864c-0.592-0.576-0.888-1.407-0.888-2.496c0-0.607,0.088-1.239,0.264-1.896
		c0.176-0.655,0.44-1.399,0.792-2.231c-1.312,2.207-2.704,4.008-4.176,5.399c-1.473,1.392-3.249,2.088-5.328,2.088
		c-1.824,0-3.28-0.608-4.368-1.823c-1.088-1.217-1.632-2.848-1.632-4.896c0-4,1.654-7.704,4.964-11.112
		c3.309-3.407,6.754-5.112,10.335-5.112c0.959,0,1.71,0.152,2.253,0.456c0.544,0.304,0.912,0.6,1.104,0.888l2.173-6.081
		c0.16-0.446,0.288-0.854,0.384-1.22c0.096-0.367,0.144-0.678,0.144-0.934c0-0.351-0.184-0.598-0.552-0.742s-1.048-0.279-2.04-0.407
		c-0.096-0.032-0.184-0.168-0.264-0.408c-0.081-0.24-0.12-0.44-0.12-0.6c0-0.16,0.032-0.36,0.096-0.6
		c0.063-0.24,0.16-0.36,0.288-0.36c1.6-0.256,3.576-0.656,5.929-1.2c2.353-0.544,3.961-0.992,4.826-1.344
		c0.096-0.064,0.28-0.136,0.552-0.216c0.272-0.08,0.488-0.12,0.648-0.12c0.128,0,0.24,0.057,0.336,0.168
		C124.836,4.138,124.884,4.258,124.884,4.386z M111.397,20.73c0-0.48-0.096-0.824-0.288-1.031c-0.192-0.209-0.496-0.312-0.912-0.312
		c-2.017,0-3.977,1.527-5.881,4.584s-2.856,6.216-2.856,9.48c0,0.768,0.136,1.336,0.408,1.703c0.271,0.369,0.632,0.553,1.08,0.553
		c0.704,0,1.544-0.584,2.52-1.752s1.928-2.664,2.856-4.488c0.96-1.92,1.712-3.615,2.256-5.088S111.397,21.69,111.397,20.73z"/>
	<path d="M146.436,18.139c0,1.568-0.808,4.225-2.424,7.968c-1.616,3.744-3.64,7.536-6.072,11.376
		c-2.528,3.936-5.16,7.352-7.896,10.248c-2.736,2.896-5.368,4.344-7.896,4.344c-2.304,0-4.048-0.455-5.232-1.367
		s-1.776-1.896-1.776-2.953c0-1.023,0.28-1.912,0.84-2.663c0.56-0.753,1.512-1.128,2.856-1.128c0.768,0,1.424,0.271,1.968,0.816
		c0.543,0.543,1.008,1.088,1.392,1.631c0.32,0.512,0.712,1.049,1.176,1.608c0.464,0.56,0.904,0.84,1.32,0.84
		c0.928,0,1.904-1.112,2.928-3.336c1.023-2.224,1.536-5.448,1.536-9.672c0-4.159-0.32-7.479-0.96-9.96s-1.296-3.721-1.968-3.721
		c-0.736,0-1.344,0.561-1.824,1.681s-0.832,1.681-1.056,1.681c-0.32,0-0.688-0.129-1.104-0.385
		c-0.417-0.256-0.624-0.464-0.624-0.624c0-1.44,0.92-3.096,2.76-4.968s3.768-2.808,5.784-2.808c0.8,0,1.544,0.264,2.232,0.792
		c0.688,0.527,1.288,1.367,1.8,2.52c0.576,1.248,1.016,2.744,1.32,4.488c0.304,1.744,0.456,4.072,0.456,6.984
		c0,0.543,0,1.176,0,1.896s-0.032,1.593-0.096,2.616c1.856-3.264,3.136-6.4,3.84-9.408s1.168-5.648,1.392-7.92
		c0.064-0.832,0.44-1.368,1.128-1.608c0.688-0.24,1.128-0.36,1.32-0.36c0.543,0,1.16,0.12,1.848,0.36
		C146.091,17.347,146.436,17.691,146.436,18.139z"/>
	<path d="M191.651,5.131c-0.353,1.76-0.72,3.792-1.104,6.096c-0.384,2.304-0.672,4.24-0.863,5.808
		c-0.033,0.096-0.168,0.184-0.408,0.264s-0.473,0.119-0.696,0.119s-0.448-0.039-0.672-0.119s-0.336-0.168-0.336-0.264
		c-0.128-2.208-0.681-4.24-1.656-6.096c-0.977-1.856-2.28-2.784-3.913-2.784h-0.336c-0.705,0-1.193,0.16-1.465,0.48
		c-0.272,0.32-0.473,0.753-0.6,1.297l-5.475,22.867c-0.064,0.257-0.12,0.553-0.168,0.889c-0.048,0.337-0.072,0.585-0.072,0.745
		c0,0.673,0.256,1.192,0.769,1.562c0.512,0.368,1.616,0.648,3.312,0.84c0.096,0,0.16,0.111,0.192,0.333s0.048,0.38,0.048,0.474
		c0,0.223-0.057,0.491-0.168,0.808c-0.112,0.315-0.248,0.475-0.408,0.475c-1.568,0-3.247-0.04-5.037-0.12
		c-1.791-0.08-3.324-0.12-4.603-0.12c-1.247,0-2.701,0.04-4.364,0.12c-1.664,0.08-3.215,0.12-4.655,0.12
		c-0.032,0-0.08-0.079-0.144-0.237c-0.064-0.158-0.096-0.348-0.096-0.569s0.062-0.482,0.191-0.783
		c0.128-0.3,0.256-0.466,0.384-0.499c2.048-0.224,3.345-0.512,3.888-0.864c0.545-0.353,1.024-1.416,1.44-3.19l5.47-22.847
		c0.159-0.736,0.135-1.217-0.073-1.441c-0.208-0.225-0.728-0.336-1.56-0.336h-0.385c-1.697,0-3.482,0.928-5.355,2.784
		c-1.873,1.856-3.178,3.729-3.913,5.616c-0.032,0.096-0.16,0.2-0.384,0.312c-0.225,0.112-0.449,0.168-0.672,0.168
		c-0.32,0-0.576-0.056-0.769-0.168s-0.288-0.216-0.288-0.312c0.48-1.888,0.96-3.848,1.439-5.88c0.48-2.032,0.865-3.88,1.152-5.544
		c1.12,0.192,2.889,0.352,5.305,0.48s6.151,0.192,11.207,0.192c4.353,0,7.832-0.064,10.44-0.192S190.658,5.323,191.651,5.131z"/>
	<path d="M201.587,33.259c0,0.513-1.208,1.712-3.624,3.6s-4.6,2.832-6.553,2.832c-1.344,0-2.319-0.345-2.928-1.032
		c-0.607-0.688-0.912-1.463-0.912-2.328c0-0.543,0.08-1.047,0.24-1.512c0.16-0.463,0.336-0.936,0.528-1.416l4.56-9.455
		c0.256-0.545,0.44-0.984,0.553-1.32c0.111-0.336,0.168-0.633,0.168-0.889s-0.049-0.439-0.145-0.552s-0.225-0.168-0.384-0.168
		c-0.416,0-1.224,0.632-2.424,1.896c-1.2,1.265-1.912,1.896-2.136,1.896c-0.256,0-0.513-0.176-0.769-0.527
		c-0.256-0.353-0.384-0.576-0.384-0.672c0-0.32,0.304-0.841,0.912-1.561c0.607-0.721,1.375-1.48,2.304-2.28
		c0.832-0.735,1.832-1.424,3-2.063c1.168-0.64,2.2-0.96,3.097-0.96c1.439,0,2.52,0.408,3.239,1.224c0.72,0.816,1.08,1.8,1.08,2.952
		c0,0.479-0.048,0.992-0.144,1.536s-0.305,1.104-0.625,1.68l-3.647,8.016c-0.288,0.672-0.496,1.217-0.624,1.633
		s-0.191,0.703-0.191,0.863c0,0.192,0.047,0.312,0.144,0.36s0.192,0.071,0.288,0.071c0.703,0,1.527-0.504,2.472-1.512
		s1.544-1.512,1.8-1.512c0.225,0,0.465,0.168,0.721,0.504S201.587,33.131,201.587,33.259z M205.283,8.491
		c0,1.184-0.424,2.208-1.272,3.072c-0.849,0.864-1.88,1.296-3.096,1.296c-1.185,0-2.208-0.432-3.072-1.296
		c-0.864-0.864-1.296-1.888-1.296-3.072s0.432-2.208,1.296-3.072c0.864-0.864,1.888-1.296,3.072-1.296
		c1.216,0,2.247,0.432,3.096,1.296C204.859,6.283,205.283,7.307,205.283,8.491z"/>
	<path d="M245.17,33.259c0,0.513-1.217,1.712-3.65,3.6c-2.436,1.888-4.629,2.832-6.582,2.832c-1.346,0-2.314-0.336-2.906-1.008
		c-0.593-0.672-0.889-1.456-0.889-2.353c0-0.512,0.056-0.967,0.168-1.367c0.111-0.4,0.312-0.92,0.6-1.561l4.366-9.023
		c0.192-0.448,0.359-0.864,0.503-1.248c0.145-0.385,0.217-0.704,0.217-0.961c0-0.255-0.057-0.439-0.168-0.551
		c-0.111-0.112-0.247-0.168-0.406-0.168c-1.021,0-2.328,1.031-3.922,3.096s-3.604,5.224-6.026,9.48l-1.928,4.079
		c-0.161,0.288-0.681,0.528-1.563,0.72c-0.882,0.192-1.691,0.289-2.429,0.289c-0.994,0-1.892-0.105-2.693-0.312
		c-0.802-0.208-1.154-0.439-1.058-0.696l6.576-13.728c0.255-0.544,0.439-0.984,0.551-1.32c0.112-0.336,0.168-0.632,0.168-0.889
		c0-0.255-0.048-0.439-0.145-0.551c-0.096-0.112-0.224-0.168-0.383-0.168c-1.057,0-2.467,1.072-4.228,3.215
		c-1.761,2.145-3.811,5.265-6.147,9.361l-1.881,4.079c-0.16,0.288-0.679,0.528-1.557,0.72c-0.879,0.192-1.701,0.289-2.467,0.289
		c-0.927,0-1.789-0.113-2.587-0.336c-0.798-0.225-1.149-0.448-1.054-0.673l6.527-14.159c0.192-0.448,0.36-0.865,0.504-1.248
		c0.145-0.385,0.217-0.705,0.217-0.961s-0.057-0.439-0.168-0.552c-0.112-0.112-0.248-0.168-0.408-0.168
		c-0.385,0-1.185,0.632-2.4,1.896c-1.216,1.265-1.92,1.896-2.111,1.896c-0.256,0-0.521-0.176-0.793-0.527
		c-0.271-0.353-0.407-0.576-0.407-0.672c0-0.32,0.303-0.841,0.909-1.561c0.606-0.721,1.373-1.48,2.298-2.28
		c0.829-0.735,1.827-1.424,2.991-2.063c1.166-0.64,2.195-0.96,3.088-0.96c1.404,0,2.442,0.384,3.113,1.152s1.006,1.713,1.006,2.832
		c0,0.448-0.047,0.928-0.144,1.439c-0.097,0.514-0.304,1.057-0.624,1.633l-0.24,0.527c1.609-2.399,3.339-4.264,5.189-5.592
		c1.852-1.328,3.646-1.992,5.385-1.992c1.416,0,2.396,0.44,2.942,1.32c0.546,0.881,0.819,1.769,0.819,2.664
		c0,0.48-0.064,1.008-0.192,1.584s-0.337,1.104-0.624,1.584l-0.24,0.576c1.5-2.367,3.143-4.248,4.93-5.641
		c1.785-1.392,3.477-2.087,5.071-2.087c1.435,0,2.512,0.408,3.229,1.224c0.718,0.816,1.076,1.8,1.076,2.952
		c0,0.513-0.056,1.024-0.168,1.536c-0.111,0.512-0.312,1.072-0.6,1.68l-3.648,8.016c-0.352,0.769-0.576,1.336-0.672,1.704
		s-0.144,0.632-0.144,0.792c0,0.192,0.04,0.312,0.12,0.36s0.184,0.071,0.312,0.071c0.64,0,1.456-0.504,2.448-1.512
		s1.6-1.512,1.824-1.512c0.224,0,0.464,0.168,0.72,0.504S245.17,33.131,245.17,33.259z"/>
	<path d="M267.537,21.979c0,1.824-1.08,3.608-3.239,5.352c-2.16,1.744-5.177,2.617-9.048,2.617c-0.096,0.416-0.16,0.824-0.192,1.223
		c-0.032,0.4-0.048,0.777-0.048,1.129c0,1.12,0.224,2.048,0.672,2.783c0.447,0.736,1.2,1.104,2.256,1.104
		c1.248,0,2.416-0.399,3.504-1.2c1.088-0.8,1.952-1.647,2.592-2.544c0.16,0,0.272,0.017,0.336,0.048
		c0.064,0.033,0.137,0.088,0.217,0.168s0.152,0.152,0.216,0.217c0.128,0.128,0.256,0.296,0.384,0.504s0.16,0.359,0.096,0.455
		c-0.768,1.568-2.144,2.938-4.127,4.104c-1.984,1.168-3.937,1.752-5.856,1.752c-2.272,0-4.152-0.656-5.64-1.968
		c-1.488-1.312-2.232-2.943-2.232-4.896c0-4.096,1.64-7.799,4.92-11.111c3.279-3.312,6.424-4.968,9.432-4.968
		c2.112,0,3.601,0.537,4.465,1.608C267.105,19.427,267.537,20.635,267.537,21.979z M261.634,21.547c0-0.544-0.072-0.952-0.216-1.225
		c-0.145-0.271-0.473-0.408-0.984-0.408c-0.992,0-1.968,0.793-2.928,2.377s-1.584,3.367-1.872,5.352c1.728,0,3.159-0.68,4.296-2.04
		C261.065,24.242,261.634,22.891,261.634,21.547z"/>
</g>
</svg>
